<?xml version="1.0" encoding="iso-8859-1"?>
<!-- Uploaded to: SVG Repo, www.svgrepo.com, Generator: SVG Repo Mixer Tools -->
<svg version="1.1" id="Layer_1" xmlns="http://www.w3.org/2000/svg" xmlns:xlink="http://www.w3.org/1999/xlink" 
	 viewBox="0 0 512 512" xml:space="preserve">
<path style="fill:#C7C5CC;" d="M487.406,193.759v245.769H24.594V193.759c0-24.672,20.013-44.685,44.685-44.685h373.442
	C467.393,149.074,487.406,169.087,487.406,193.759z"/>
<polygon style="fill:#ADACB2;" points="487.406,388.912 487.406,439.528 24.594,439.528 24.594,390.507 "/>
<rect x="7.837" y="421.971" style="fill:#E0E0E3;" width="496.327" height="39.894"/>
<rect x="76.863" y="194.821" style="fill:#00D8DE;" width="170.757" height="99.474"/>
<g>
	<circle style="fill:#E0E0E3;" cx="333.406" cy="269.165" r="26.732"/>
	<circle style="fill:#E0E0E3;" cx="423.57" cy="269.165" r="26.732"/>
</g>
<rect x="293.104" y="331.535" style="fill:#FF0435;" width="157.194" height="35.11"/>
<rect x="183.139" y="50.127" style="fill:#57555C;" width="145.721" height="46.279"/>
<rect x="183.139" y="74.066" style="fill:#3C3A41;" width="145.721" height="22.343"/>
<path d="M504.163,414.137h-8.92V193.759c0-28.96-23.561-52.522-52.522-52.522h-5.316v-9.999c0-35.848-29.165-65.014-65.014-65.014
	h-35.693V50.128c0-4.329-3.509-7.837-7.837-7.837h-95.138c-4.328,0-7.837,3.508-7.837,7.837s3.509,7.837,7.837,7.837h87.301v30.607
	h-130.05V57.965h10.557c4.328,0,7.837-3.508,7.837-7.837s-3.509-7.837-7.837-7.837h-18.393c-4.328,0-7.837,3.508-7.837,7.837v16.097
	h-35.693c-35.848,0-65.014,29.165-65.014,65.014v9.999h-5.316c-28.96,0-52.522,23.561-52.522,52.522v220.378h-8.92
	c-4.328,0-7.837,3.508-7.837,7.837v39.897c0,4.329,3.509,7.837,7.837,7.837h496.327c4.328,0,7.837-3.508,7.837-7.837v-39.897
	C512,417.645,508.491,414.137,504.163,414.137z M496.327,454.034H15.673V429.81h356.029c4.328,0,7.837-3.508,7.837-7.837
	s-3.509-7.837-7.837-7.837H32.43V193.759c0-20.318,16.53-36.848,36.848-36.848h273.706c4.328,0,7.837-3.508,7.837-7.837
	c0-4.329-3.509-7.837-7.837-7.837H90.269v-9.999c0-27.206,22.134-49.34,49.34-49.34h35.693v14.51c0,4.329,3.509,7.837,7.837,7.837
	h145.725c4.328,0,7.837-3.508,7.837-7.837v-14.51h35.693c27.206,0,49.34,22.134,49.34,49.34v9.999h-43.824
	c-4.328,0-7.837,3.508-7.837,7.837c0,4.329,3.509,7.837,7.837,7.837h64.814c20.318,0,36.848,16.529,36.848,36.848v220.378h-71.444
	c-4.328,0-7.837,3.508-7.837,7.837c0,4.329,3.509,7.837,7.837,7.837h88.2V454.034z"/>
<path d="M119.151,240.749l23.984,23.984c1.469,1.469,3.463,2.295,5.541,2.295c2.078,0,4.072-0.825,5.541-2.296l16.855-16.855h68.713
	v38.588h-98.433c-4.328,0-7.837,3.508-7.837,7.837c0,4.329,3.509,7.837,7.837,7.837h106.269c4.328,0,7.837-3.508,7.837-7.837
	v-99.478c0-4.329-3.509-7.837-7.837-7.837H76.86c-4.328,0-7.837,3.508-7.837,7.837v99.478c0,4.329,3.509,7.837,7.837,7.837h32.231
	c4.328,0,7.837-3.508,7.837-7.837c0-4.329-3.509-7.837-7.837-7.837H84.696v-11.26L119.151,240.749z M239.784,202.66v29.543h-71.959
	c-2.078,0-4.072,0.825-5.541,2.295l-13.609,13.61l-23.984-23.984c-1.469-1.469-3.463-2.295-5.541-2.295
	c-2.078,0-4.072,0.825-5.541,2.295l-28.913,28.913v-50.379h155.088V202.66z"/>
<path d="M92.352,323.703H76.86c-4.328,0-7.837,3.508-7.837,7.837c0,4.329,3.509,7.837,7.837,7.837h15.493
	c4.328,0,7.837-3.508,7.837-7.837C100.189,327.21,96.68,323.703,92.352,323.703z"/>
<path d="M144.641,323.703h-15.493c-4.328,0-7.837,3.508-7.837,7.837c0,4.329,3.509,7.837,7.837,7.837h15.493
	c4.328,0,7.837-3.508,7.837-7.837C152.478,327.21,148.969,323.703,144.641,323.703z"/>
<path d="M196.929,323.703h-15.493c-4.328,0-7.837,3.508-7.837,7.837c0,4.329,3.509,7.837,7.837,7.837h15.493
	c4.328,0,7.837-3.508,7.837-7.837C204.766,327.21,201.257,323.703,196.929,323.703z"/>
<path d="M249.218,323.703h-15.493c-4.328,0-7.837,3.508-7.837,7.837c0,4.329,3.509,7.837,7.837,7.837h15.493
	c4.328,0,7.837-3.508,7.837-7.837C257.054,327.21,253.546,323.703,249.218,323.703z"/>
<path d="M311.668,210.373h15.493c4.328,0,7.837-3.508,7.837-7.837c0-4.329-3.509-7.837-7.837-7.837h-15.493
	c-4.328,0-7.837,3.508-7.837,7.837C303.831,206.865,307.34,210.373,311.668,210.373z"/>
<path d="M363.957,210.373h15.493c4.328,0,7.837-3.508,7.837-7.837c0-4.329-3.509-7.837-7.837-7.837h-15.493
	c-4.328,0-7.837,3.508-7.837,7.837C356.12,206.865,359.629,210.373,363.957,210.373z"/>
<path d="M416.245,210.373h15.493c4.328,0,7.837-3.508,7.837-7.837c0-4.329-3.509-7.837-7.837-7.837h-15.493
	c-4.328,0-7.837,3.508-7.837,7.837C408.408,206.865,411.917,210.373,416.245,210.373z"/>
<path d="M92.352,358.812H76.86c-4.328,0-7.837,3.508-7.837,7.837s3.509,7.837,7.837,7.837h15.493c4.328,0,7.837-3.508,7.837-7.837
	S96.68,358.812,92.352,358.812z"/>
<path d="M144.641,358.812h-15.493c-4.328,0-7.837,3.508-7.837,7.837s3.509,7.837,7.837,7.837h15.493
	c4.328,0,7.837-3.508,7.837-7.837S148.969,358.812,144.641,358.812z"/>
<path d="M196.929,358.812h-15.493c-4.328,0-7.837,3.508-7.837,7.837s3.509,7.837,7.837,7.837h15.493
	c4.328,0,7.837-3.508,7.837-7.837S201.257,358.812,196.929,358.812z"/>
<path d="M249.218,358.812h-15.493c-4.328,0-7.837,3.508-7.837,7.837s3.509,7.837,7.837,7.837h15.493
	c4.328,0,7.837-3.508,7.837-7.837S253.546,358.812,249.218,358.812z"/>
<path d="M333.402,303.735c19.061,0,34.568-15.507,34.568-34.568s-15.507-34.568-34.568-34.568s-34.568,15.507-34.568,34.568
	S314.34,303.735,333.402,303.735z M333.402,250.271c10.419,0,18.895,8.476,18.895,18.895c0,10.419-8.476,18.895-18.895,18.895
	c-10.419,0-18.895-8.476-18.895-18.895C314.507,258.748,322.982,250.271,333.402,250.271z"/>
<path d="M423.57,303.735c19.061,0,34.568-15.507,34.568-34.568s-15.507-34.568-34.568-34.568s-34.568,15.507-34.568,34.568
	S404.509,303.735,423.57,303.735z M423.57,250.271c10.419,0,18.895,8.476,18.895,18.895c0,10.419-8.476,18.895-18.895,18.895
	c-10.419,0-18.895-8.476-18.895-18.895C404.675,258.748,413.152,250.271,423.57,250.271z"/>
<path d="M458.139,366.649v-35.11c0-4.329-3.509-7.837-7.837-7.837H293.104c-4.328,0-7.837,3.508-7.837,7.837v35.11
	c0,4.329,3.509,7.837,7.837,7.837h157.197C454.63,374.486,458.139,370.977,458.139,366.649z M442.465,358.812H300.941v-19.436
	h141.523v19.436H442.465z"/>
</svg>